<?xml version="1.0" encoding="utf-8"?>
<!-- Generator: Adobe Illustrator 23.0.0, SVG Export Plug-In . SVG Version: 6.00 Build 0)  -->
<svg version="1.1" id="katman_1" xmlns="http://www.w3.org/2000/svg" xmlns:xlink="http://www.w3.org/1999/xlink" x="0px" y="0px"
	 viewBox="0 0 423 337.4" style="enable-background:new 0 0 423 337.4;" xml:space="preserve">
<style type="text/css">
	.st0{fill:#E0F2FC;}
</style>
<title>contact_background</title>
<path class="st0" d="M639.8,194.2c0.5-13.2,0-26.3-1.4-39.4c-2.8-30.6-9.5-63.2-31.7-84C582,47.6,546,46.2,514.1,47.6
	C476.7,49.2,442,45,406.4,33c-32.6-11-64.8-28.7-98.4-9.3c-15.1,8.7-26.2,23.6-32.5,40s-7.8,34.4-6.9,52.1
	c0.7,13.2,2.9,26.7,10.4,37.5c19,27.3,59,28.6,83.4,49.4c17,14.5,20.1,39.2,29.4,59.7c19.8,43.6,70.7,67.7,117.6,62.7
	c52.4-5.6,106.9-38.8,123.8-91.5C637.2,220.8,639.5,207.5,639.8,194.2z"/>
<path class="st0" d="M28.3,294.8c0.3,0.6,0.5,1.3,0.7,1.9c2.7,7.6,3.9,17.1,11.6,21.4c6.9,3.8,16.2,0.2,20.5-6.5s4.3-15.5,1.9-23.1
	c-4.4-14.2-15.9-24.7-29-30.3c-12.8-5.4-31.4-9.7-42.8,0.8c-1.1,1-2.2,2.4-1.9,3.9c0.3,1.3,1.4,2.1,2.4,2.8
	c7.3,4.1,15.5,5,22.4,10.2C20.6,280.8,25.5,287.4,28.3,294.8z"/>
</svg>
